<svg width="21" height="26" viewBox="0 0 21 26" fill="none" xmlns="http://www.w3.org/2000/svg">
<path d="M9.77501 25.2663C9.98657 25.4173 10.24 25.4986 10.5 25.4986C10.76 25.4986 11.0134 25.4173 11.225 25.2663C11.605 24.9975 20.5361 18.5488 20.4999 10.4989C20.4999 4.98523 16.0137 0.499023 10.5 0.499023C4.98631 0.499023 0.50011 4.98523 0.50011 10.4927C0.46386 18.5488 9.39501 24.9975 9.77501 25.2663ZM10.5 2.999C14.6362 2.999 17.9999 6.36271 17.9999 10.5052C18.0262 16.0526 12.515 21.0338 10.5 22.6675C8.48627 21.0326 2.97383 16.0501 3.00008 10.4989C3.00008 6.36271 6.3638 2.999 10.5 2.999Z" fill="white"/>
<path d="M10.7857 16.0712C13.5432 16.0712 15.7857 13.8287 15.7857 11.0712C15.7857 8.31376 13.5432 6.07129 10.7857 6.07129C8.02824 6.07129 5.78577 8.31376 5.78577 11.0712C5.78577 13.8287 8.02824 16.0712 10.7857 16.0712ZM10.7857 8.57126C12.1644 8.57126 13.2857 9.6925 13.2857 11.0712C13.2857 12.45 12.1644 13.5712 10.7857 13.5712C9.40698 13.5712 8.28574 12.45 8.28574 11.0712C8.28574 9.6925 9.40698 8.57126 10.7857 8.57126Z" fill="white"/>
</svg>
